<?xml version="1.0" standalone="no"?>
<!DOCTYPE svg PUBLIC "-//W3C//DTD SVG 20010904//EN"
 "http://www.w3.org/TR/2001/REC-SVG-20010904/DTD/svg10.dtd">
<svg version="1.0" xmlns="http://www.w3.org/2000/svg"
 width="260.000000pt" height="260.000000pt" viewBox="0 0 260.000000 260.000000"
 preserveAspectRatio="xMidYMid meet">
<metadata>
Created by potrace 1.14, written by Peter Selinger 2001-2017
</metadata>
<g transform="translate(0.000000,260.000000) scale(0.100000,-0.100000)"
fill="#000000" stroke="none">
<path d="M1140 2463 l0 -53 -55 0 -55 0 -1 -32 c-3 -91 8 -82 -101 -83 -92 -1
-98 0 -99 20 -2 33 -5 69 -7 80 -1 6 -27 11 -57 12 -60 1 -59 2 -55 -69 1 -35
-1 -38 -27 -39 -86 -3 -77 9 -83 -114 -3 -60 -8 -109 -12 -107 -5 1 -28 2 -53
2 l-46 0 3 -117 3 -118 50 0 50 0 2 -90 c1 -49 2 -98 2 -107 1 -15 10 -18 54
-18 l53 0 0 -362 -1 -363 -55 -5 -55 -5 -1 -100 c-1 -55 -2 -106 -3 -112 -1
-9 -18 -13 -51 -13 l-50 0 0 -114 0 -115 53 -3 52 -3 0 -55 c0 -61 -9 -55 85
-59 24 -1 25 -4 22 -51 l-4 -50 111 0 111 0 2 -27 c0 -16 0 -40 -1 -56 l-2
-27 130 0 c170 -1 966 -1 1031 0 l50 0 0 50 0 50 38 1 c20 1 45 1 55 0 15 -2
17 9 17 112 l0 115 55 -2 55 -1 0 75 0 76 -160 -1 -160 -1 0 43 c0 24 -3 44
-7 44 -5 1 -26 3 -48 4 -22 2 -43 3 -46 4 -4 1 -7 34 -7 74 0 39 -1 89 -1 110
l-1 37 -51 -3 c-28 -1 -53 2 -57 8 -11 17 -8 715 3 716 6 1 28 1 50 0 21 0 42
4 45 8 3 5 5 55 4 110 l-1 101 56 0 56 0 0 118 0 117 -56 3 -57 3 0 42 c0 69
2 67 -52 67 -54 0 -53 0 -51 63 1 23 -3 37 -11 38 -7 1 -80 2 -163 3 l-150 1
-2 45 c-4 64 -7 68 -52 65 -49 -3 -55 5 -56 65 l0 45 -118 0 -117 1 0 -53z"/>
</g>
</svg>
